<svg width="38" height="38" viewBox="0 0 38 38" fill="none" xmlns="http://www.w3.org/2000/svg">
<path fill-rule="evenodd" clip-rule="evenodd" d="M5 19C5 11.268 11.268 5 19 5C26.732 5 33 11.268 33 19C33 26.732 26.732 33 19 33C11.268 33 5 26.732 5 19ZM19 1C9.05887 1 1 9.05887 1 19C1 28.9411 9.05887 37 19 37C28.9411 37 37 28.9411 37 19C37 9.05887 28.9411 1 19 1ZM24.1035 11.59L19.2582 16.4353L14.413 11.5901L11.5846 14.4186L16.4297 19.2637L16.4284 19.2651L16.4299 19.2666L11.5846 24.1119L14.413 26.9403L19.2583 22.095L24.1035 26.9402L26.9319 24.1117L22.0868 19.2666L22.0881 19.2652L22.0866 19.2637L26.9319 14.4184L24.1035 11.59Z" fill="white" stroke="#FF4F4F" stroke-width="1.3" stroke-miterlimit="10"/>
</svg>
