<svg width="71" height="19" viewBox="0 0 71 19" fill="none" xmlns="http://www.w3.org/2000/svg">
<path d="M28.2212 5.28446V0.746094H23.8133L22.127 2.48396H26.5349V7.04446L28.2212 5.28446Z" fill="#121212"/>
<path fill-rule="evenodd" clip-rule="evenodd" d="M55.9592 15.2472C56.2261 14.5498 56.3648 13.7971 56.3648 12.978V10.3989C56.3648 9.59082 56.2261 8.83811 55.9592 8.14075C55.6924 7.45446 55.3082 6.85673 54.8279 6.35861C54.3476 5.8605 53.7713 5.46201 53.1096 5.18528C52.4479 4.90855 51.7221 4.76465 50.943 4.76465H47.7518C46.9727 4.76465 46.2469 4.90855 45.5852 5.18528C44.9235 5.47308 44.3471 5.8605 43.8668 6.35861C43.3759 6.85673 43.0023 7.44339 42.7248 8.14075C42.4473 8.82704 42.3086 9.57975 42.3086 10.3989V12.978C42.3086 13.7971 42.4473 14.5609 42.7248 15.2472C43.0023 15.9335 43.3866 16.5312 43.8668 17.0293C44.3471 17.5385 44.9235 17.9259 45.5852 18.2026C46.2469 18.4794 46.9727 18.6233 47.7518 18.6233H50.943C51.7221 18.6233 52.4479 18.4794 53.1096 18.2026C53.7713 17.9259 54.3476 17.5274 54.8279 17.0293C55.3082 16.5312 55.6924 15.9335 55.9592 15.2472ZM53.7835 9.08228C53.933 9.48078 54.0077 9.91247 54.0077 10.3995H53.997V12.9786C53.997 13.4657 53.9223 13.9085 53.7729 14.2959C53.6235 14.6944 53.41 15.0264 53.1432 15.3032C52.8763 15.591 52.5455 15.8013 52.1719 15.9563C51.7877 16.1112 51.3715 16.1887 50.9125 16.1887H47.7427C47.2837 16.1887 46.8568 16.1112 46.4833 15.9563C46.1097 15.8013 45.7789 15.5799 45.512 15.3032C45.2452 15.0264 45.0318 14.6833 44.8823 14.2959C44.7329 13.8974 44.6582 13.4657 44.6582 12.9786V10.3995C44.6582 9.91247 44.7329 9.46971 44.8823 9.08228C45.0318 8.69486 45.2452 8.35172 45.512 8.07499C45.7789 7.78719 46.1097 7.57687 46.4833 7.42191C46.8675 7.26694 47.2837 7.18945 47.7427 7.18945H50.9339C51.3928 7.18945 51.8091 7.26694 52.1826 7.42191C52.5562 7.57687 52.887 7.79826 53.1538 8.07499C53.4313 8.35172 53.6341 8.69486 53.7835 9.08228Z" fill="#121212"/>
<path d="M2.41208 15.9768L2.34804 4.46484V4.46484L0 6.889L0.0533646 18.4231H9.64831L11.9964 15.9989V15.9768H2.41208Z" fill="#121212"/>
<path d="M15.3909 4.94141L13.0322 7.3877H21.7946V10.4539H15.3909L13.0215 12.9112V12.9112H21.8053V14.9922C21.8053 15.3132 21.7306 15.5568 21.5705 15.7228C21.4211 15.8888 21.1756 15.9774 20.8554 15.9774H15.3695L13.0215 18.4237H20.8661C21.1969 18.4237 21.5598 18.3683 21.944 18.2466C22.3283 18.1248 22.6911 17.9366 23.022 17.6599C23.3529 17.3832 23.6304 17.029 23.8438 16.5973C24.0679 16.1656 24.1747 15.6232 24.1747 14.9922V4.94141H15.3909V4.94141Z" fill="#121212"/>
<path d="M70.2721 13.1665C70.1547 12.779 70.0053 12.447 69.8025 12.1481C69.6104 11.8492 69.3756 11.6057 69.1301 11.3954C68.8739 11.1851 68.6071 11.008 68.3296 10.8751C68.0521 10.7423 67.764 10.6316 67.4865 10.5652C67.1983 10.4988 66.9315 10.4656 66.6753 10.4545H66.654H62.2567C61.8085 10.4545 61.4563 10.3217 61.2108 10.045C60.9546 9.76822 60.8372 9.40294 60.8372 8.92696C60.8372 8.46206 60.9653 8.08571 61.2108 7.80898C61.4563 7.53225 61.8085 7.38835 62.2567 7.38835H67.5612L69.9092 4.95312V4.95312H62.2567C61.8725 4.95312 61.4669 5.01954 61.0187 5.16344C60.5811 5.30734 60.1648 5.52872 59.7913 5.84973C59.4177 6.17074 59.0975 6.5803 58.8521 7.07841C58.5959 7.58759 58.4785 8.20747 58.4785 8.93803C58.4785 9.6686 58.6066 10.2885 58.8521 10.7977C59.0975 11.3068 59.4177 11.7164 59.7913 12.0263C60.1648 12.3363 60.5811 12.5687 61.0187 12.7126C61.4563 12.8565 61.8725 12.9229 62.2567 12.9229H66.654C66.8674 12.9229 67.0702 12.9561 67.2517 13.0336C67.4331 13.1111 67.5825 13.2107 67.6999 13.3546C67.828 13.4875 67.924 13.6535 67.9881 13.8417C68.0521 14.0299 68.0841 14.2402 68.0841 14.4616C68.0841 14.9265 67.9561 15.2917 67.7106 15.5685C67.4544 15.8452 67.1129 15.978 66.654 15.978H60.9333L58.5746 18.4243V18.4243H66.6433C66.8994 18.4243 67.1663 18.3911 67.4544 18.3358C67.7426 18.2694 68.0201 18.1808 68.2976 18.048C68.5751 17.9151 68.8419 17.7491 69.1087 17.5388C69.3649 17.3285 69.5997 17.085 69.7918 16.7861C69.9839 16.4872 70.144 16.1551 70.2614 15.7677C70.3788 15.3803 70.4429 14.9486 70.4429 14.4616C70.4429 13.9745 70.3895 13.5428 70.2721 13.1665Z" fill="#121212"/>
<path d="M33.0957 15.9774C32.7969 15.9774 32.5621 15.8888 32.3913 15.7228C32.2205 15.5457 32.1458 15.3022 32.1458 14.9922V8.39499C32.1458 8.06292 32.2312 7.80833 32.3913 7.64229C32.5514 7.47625 32.7862 7.3877 33.0957 7.3877H39.2433L41.602 4.94141H33.0957C32.6901 4.94141 32.3273 4.99675 32.0071 5.09637C31.6869 5.20707 31.4094 5.35097 31.1639 5.52807C30.9184 5.70518 30.705 5.9155 30.5342 6.14795C30.3634 6.3804 30.214 6.62392 30.1073 6.87851C30.0006 7.13311 29.9152 7.3877 29.8618 7.65336C29.8085 7.91902 29.7871 8.15147 29.7871 8.38392V15.0033C29.7871 15.4239 29.8405 15.8003 29.9365 16.1324C30.0433 16.4644 30.182 16.7633 30.3528 17.0179C30.5235 17.2725 30.7263 17.4828 30.9505 17.671C31.1746 17.8481 31.4094 17.992 31.6549 18.1137C31.9003 18.2244 32.1458 18.313 32.402 18.3683C32.6475 18.4237 32.8823 18.4458 33.1064 18.4458H41.6127L39.254 15.9995H33.0957V15.9774Z" fill="#121212"/>
</svg>
