<svg width="164" height="43" viewBox="0 0 164 43" fill="none" xmlns="http://www.w3.org/2000/svg">
<g clip-path="url(#clip0_1_787)">
<path d="M74.4145 20.3316V7.73291H81.7585V10.4332H77.3168V13.0951H81.2152V15.7954H77.3168V20.3316H74.4145Z" fill="#6620DF"/>
<path d="M87.9252 7.73291H85.023V20.3316H87.9252V7.73291Z" fill="#6620DF"/>
<path d="M89.7407 20.3316L95.0191 7.73291H97.6065L102.893 20.3316H99.7886L98.7536 17.6869H93.7124L92.6602 20.3316H89.7407ZM96.2352 11.4218L94.8035 14.978H97.6496L96.2352 11.4218Z" fill="#6620DF"/>
<path d="M102.096 10.4332V7.73291H112.614V10.4332H108.806V20.3316H105.904V10.4332H102.096Z" fill="#6620DF"/>
<path d="M73.5089 29.1004C73.4853 28.2391 73.6396 27.382 73.9622 26.5821C74.2848 25.7821 74.7689 25.056 75.3848 24.4486C76.0259 23.8258 76.7884 23.3394 77.6256 23.0193C78.4627 22.6992 79.357 22.5521 80.2535 22.5871C82.0493 22.5267 83.7958 23.1762 85.1092 24.393C85.7404 25.0016 86.2352 25.7353 86.5614 26.5465C86.8876 27.3576 87.0379 28.2278 87.0024 29.1004C87.034 29.9745 86.8799 30.8453 86.55 31.6564C86.2201 32.4674 85.7219 33.2005 85.0877 33.8078C84.4458 34.418 83.6875 34.8947 82.8573 35.21C82.0271 35.5253 81.1419 35.6727 80.2535 35.6437C78.4628 35.7099 76.7185 35.0698 75.402 33.8635C74.7641 33.2482 74.2653 32.5053 73.9389 31.6841C73.6125 30.8629 73.4659 29.9822 73.5089 29.1004ZM76.5923 29.1004C76.578 29.6014 76.6653 30.1001 76.849 30.5669C77.0327 31.0337 77.3091 31.4591 77.6617 31.8179C78.3609 32.517 79.3108 32.9127 80.3033 32.9183C81.2958 32.9239 82.2502 32.539 82.9573 31.8478C83.6164 31.0856 83.9601 30.1039 83.919 29.1004C83.9398 28.595 83.8572 28.0907 83.6764 27.6178C83.4956 27.1449 83.2202 26.7132 82.8668 26.3487C82.1648 25.6711 81.2241 25.292 80.2449 25.292C79.2656 25.292 78.3249 25.6711 77.6229 26.3487C77.2758 26.7166 77.006 27.1494 76.829 27.6218C76.6521 28.0942 76.5716 28.5968 76.5923 29.1004Z" fill="#6620DF"/>
<path d="M100.427 35.4127H98.1024L92.0824 27.8552V35.4127H89.3612V22.814H91.6813L97.7057 30.41V22.814H100.427V35.4127Z" fill="#6620DF"/>
<path d="M116.098 32.0105L117.202 34.1503C116.725 34.6393 116.132 35.0014 115.477 35.203C114.703 35.4826 113.886 35.6274 113.062 35.631C112.181 35.6662 111.302 35.5257 110.477 35.2177C109.652 34.9097 108.897 34.4405 108.258 33.8379C107.639 33.2223 107.155 32.4863 106.837 31.6762C106.519 30.866 106.373 29.9993 106.408 29.1305C106.34 27.4068 106.96 25.726 108.133 24.453C109.283 23.2291 110.916 22.6171 113.032 22.6171C113.798 22.6084 114.56 22.7329 115.283 22.9852C115.888 23.1811 116.444 23.5036 116.913 23.9309L115.619 26.0707C114.845 25.5818 113.95 25.3138 113.032 25.2961C112.56 25.2824 112.09 25.365 111.652 25.5387C111.214 25.7125 110.816 25.9736 110.483 26.306C110.139 26.6828 109.874 27.1242 109.705 27.6041C109.535 28.0841 109.464 28.5929 109.496 29.1005C109.467 29.6105 109.546 30.1209 109.728 30.5986C109.911 31.0763 110.192 31.5107 110.554 31.8737C110.916 32.2368 111.351 32.5203 111.831 32.706C112.31 32.8918 112.824 32.9756 113.338 32.952C114.335 32.9578 115.306 32.6341 116.098 32.0319" fill="#6620DF"/>
<path d="M127.453 35.4127V30.3373H122.825V35.4127H119.923V22.814H122.825V27.6369H127.453V22.814H130.355V35.4127H127.453Z" fill="#6620DF"/>
<path d="M131.985 35.4127L137.263 22.814H139.851L145.129 35.4127H142.024L140.976 32.768H135.957L134.904 35.4127H131.985ZM138.479 26.5029L137.048 30.0676H139.894L138.479 26.5029Z" fill="#6620DF"/>
<path d="M149.489 22.814H146.587V35.4127H149.489V22.814Z" fill="#6620DF"/>
<path d="M164 35.4127H161.68L155.656 27.8552V35.4127H152.934V22.814H155.259L161.279 30.41V22.814H164V35.4127Z" fill="#6620DF"/>
<path d="M21.6654 37.1928L7.92616 23.5541H20.8504V19.4459H7.92616L21.6654 5.8115L28.1081 12.205L31.0362 9.29926L21.6654 0L0 21.5L21.6654 43L31.0362 33.705L28.1081 30.7993L21.6654 37.1928Z" fill="#6620DF"/>
<path d="M28.134 12.2264L28.1081 12.2007L20.8073 19.4458H35.409L28.134 12.2264Z" fill="#6620DF"/>
<path d="M28.6084 30.3029L35.409 23.5542H20.8073L28.1081 30.7993L28.6084 30.3029Z" fill="#6620DF"/>
<path d="M40.4071 0L31.0363 9.29926L31.5236 9.77856L43.3309 21.5L31.0621 33.6751L31.0363 33.705L40.4071 43L62.0725 21.5L40.4071 0Z" fill="#00B289"/>
</g>
<defs>
<clipPath id="clip0_1_787">
<rect width="164" height="43" fill="white"/>
</clipPath>
</defs>
</svg>
