<svg width="243" height="22" viewBox="0 0 243 22" fill="none" xmlns="http://www.w3.org/2000/svg">
<path d="M4.84942 0.355192V8.73034H13.2257V0.355192H18.0751V21.5135H13.2257V12.2567H4.84942V21.5135H0V0.355192H4.84942ZM45.4082 0.355192V4.32237H33.9459V8.73034H44.0856V12.2567H33.9459V17.5463H45.4082V21.5135H29.5374V0.355192H45.4082ZM65.1145 0.355192C66.4075 0.348768 67.6913 0.572663 68.9058 1.01639C70.0698 1.43879 71.1243 2.11659 71.9918 2.99997C72.8726 3.92074 73.5487 5.01734 73.9757 6.21779C74.4992 7.70363 74.753 9.27105 74.7251 10.8462C74.7271 12.2793 74.5192 13.705 74.1079 15.0778C73.7593 16.3182 73.159 17.4735 72.3445 18.472C71.5232 19.4221 70.4986 20.1753 69.3467 20.6759C68.0157 21.2706 66.5722 21.5713 65.1145 21.5575H55.9888V0.355192H65.1145ZM64.4973 17.5463C65.1566 17.5524 65.8122 17.4481 66.437 17.2377C67.0706 17.0211 67.6444 16.6587 68.1123 16.1798C68.6483 15.6128 69.0545 14.9359 69.3026 14.1962C69.6157 13.259 69.7648 12.2748 69.7435 11.287C69.7537 10.3231 69.6501 9.36138 69.4349 8.42178C69.2581 7.62318 68.9123 6.87168 68.4209 6.21779C67.9382 5.59326 67.2996 5.10678 66.5693 4.80724C65.6519 4.47522 64.6785 4.32548 63.7037 4.36645H60.3973V17.5904L64.4973 17.5463ZM97.8701 21.3812C96.9217 21.7839 95.9026 21.9937 94.8723 21.9983C93.3751 22.0247 91.8888 21.7395 90.5078 21.1608C89.2674 20.6415 88.1544 19.8595 87.2455 18.8687C86.3452 17.8539 85.6558 16.6701 85.2175 15.3864C84.7391 14.0121 84.5005 12.5658 84.5122 11.1106C84.494 9.61184 84.7326 8.12099 85.2175 6.70267C85.6569 5.40618 86.3459 4.2082 87.2455 3.17629C88.149 2.16844 89.2626 1.37097 90.5078 0.840069C91.8869 0.255108 93.3746 -0.0303597 94.8723 0.00255463C95.9197 0.00523036 96.9605 0.168763 97.9583 0.487431C98.9598 0.790802 99.8999 1.26829 100.736 1.89798C101.593 2.55524 102.304 3.38536 102.82 4.33455C103.336 5.28373 103.648 6.33081 103.733 7.40794H99.1045C98.9113 6.36402 98.3477 5.42489 97.5174 4.76316C96.6865 4.15958 95.6784 3.84944 94.6518 3.88157C93.7318 3.85761 92.8211 4.07009 92.0067 4.49868C91.2946 4.89037 90.6892 5.4503 90.2433 6.12963C89.7867 6.83015 89.4582 7.60628 89.2734 8.42178C89.0681 9.28839 88.9645 10.176 88.9648 11.0666C88.9604 11.9428 89.0641 12.8163 89.2734 13.6673C89.4605 14.4683 89.7889 15.2296 90.2433 15.9153C90.696 16.5774 91.3007 17.1215 92.0067 17.5022C92.8211 17.9308 93.7318 18.1433 94.6518 18.1193C96.1802 18.1193 97.3558 17.7373 98.1787 16.9732C99.031 16.1798 99.516 15.0484 99.6335 13.5791H95.225V10.0527H104.042V21.5135H101.088L100.647 19.1331C99.9288 20.0965 98.9716 20.8561 97.8701 21.3371V21.3812ZM130.934 0.355192V4.32237H119.913V8.73034H130.053V12.2567H119.913V17.5463H130.934V21.5135H115.063V0.355192H130.934ZM141.603 0.355192L146.452 18.8687L151.655 0.355192H154.212L159.37 18.8687H159.458L164.263 0.355192H166.247L160.428 21.5135H158.267L152.889 2.55918H152.845L147.511 21.5135H145.35L139.487 0.355192H141.603ZM190.45 0.355192V2.11838H178.106V9.61193H189.568V11.3751H178.106V19.7503H190.45V21.5135H175.902V0.355192H190.45ZM215.138 0.355192V2.11838H202.794V9.61193H214.697V11.3751H202.794V19.7503H215.579V21.5135H200.59V0.355192H215.138ZM227.482 0.355192V11.8159L239.826 0.355192H242.559L233.169 9.17113L243 21.5135H240.443L231.626 10.5376L227.482 14.2844V21.5135H225.278V0.355192H227.482Z" fill="#021315"/>
</svg>
