<svg width="135" height="30" viewBox="0 0 135 30" fill="none" xmlns="http://www.w3.org/2000/svg">
<path d="M17.0421 8.94H16.312C15.8995 5.53286 14.1209 0.733929 10.4877 0.733929C7.50964 0.733929 6.85446 3.59464 6.85446 8.18679V23.1493C6.85446 25.822 7.34143 29.2661 10.2814 29.2661C14.0834 29.2661 16.2745 25.2005 16.6114 21.06H17.3416V29.4166H16.6114C16.6114 28.7577 16.3682 27.9487 15.675 27.9487C14.7761 27.9487 13.1464 30 10.3002 30C4.04518 30 0 22.9607 0 15C0 7.0575 4.04518 0 10.2814 0C13.3339 0 14.4761 2.29607 15.413 2.29607C16.0307 2.29607 16.237 1.52464 16.312 0.583393H17.0421V8.94ZM19.4952 28.7014H21.5362V1.31732H19.4952V0.564643H29.6839V1.31732H27.6429V28.7014H29.6839V29.4354H19.4946V28.7014H19.4952ZM35.5264 28.7014H38.1295V1.31732C33.5223 1.80696 32.2114 5.90946 32.0057 9.97446H31.275V0.565179H51.0889V9.95625H50.377C50.1712 5.89125 48.8604 1.8075 44.2537 1.29911V28.6832H46.8562V29.4171H35.5259V28.702L35.5264 28.7014ZM56.8195 28.7014H58.973V16.2798L52.9805 1.31732H51.5196V0.564643H61.0146V1.31732H59.3105L64.4041 14.3979L68.6555 4.19679C69.0675 3.25607 69.3482 2.59714 69.3482 2.14554C69.3482 1.31732 68.2061 1.31732 67.4754 1.31732V0.564643H72.532V1.31732C70.7716 1.31732 70.5654 1.48661 69.592 3.93375L65.0973 15.075V28.6821H67.2509V29.4161H56.8007V28.7014H56.8195Z" fill="#021315"/>
<path d="M71.5762 28.7012C72.9621 28.7012 73.6553 28.2121 73.9735 26.9886L81.2399 0.564453H83.206L90.7162 28.6825H92.514V29.4164H82.5883V28.6825H84.5544L82.4758 20.7218H76.5953L75.6213 24.4852C75.1719 26.0853 74.8537 27.3459 74.8537 27.7225C74.8537 28.6257 76.4453 28.6637 77.0072 28.6637V29.3977H71.5762V28.7012ZM79.4983 9.88052H79.4046L76.7453 20.0061H82.2514L79.4983 9.88106V9.88052ZM93.7687 24.4289H98.4503V29.4352H93.7687V24.4289ZM101.11 28.7012C102.982 28.7012 103.264 28.3814 103.264 24.843V1.31713H101.316V0.564453H109.799L114.332 18.4814H114.407L118.939 0.564453H127.178V1.31713H125.212V28.7012H127.178V29.4352H117.141V28.7012H119.351V2.05106H119.276L112.552 29.4352H111.204L104.331 1.80677H104.256V24.8425C104.256 28.3621 104.631 28.7012 106.466 28.7012V29.4352H101.128V28.7012H101.11ZM129.782 24.4289H134.464V29.4352H129.782V24.4289Z" fill="#021315"/>
</svg>
