<svg width="24" height="23" viewBox="0 0 24 23" fill="none" xmlns="http://www.w3.org/2000/svg">
<path d="M0 20.493C0 21.3634 0.537375 22.0693 1.2 22.0693H22.8C23.4626 22.0693 24 21.3634 24 20.493V4.72915H0V20.493ZM16.8 10.2465C16.8 9.81101 17.0685 9.45829 17.4 9.45829H21C21.3315 9.45829 21.6 9.81101 21.6 10.2465V11.8229C21.6 12.2583 21.3315 12.6111 21 12.6111H17.4C17.0685 12.6111 16.8 12.2583 16.8 11.8229V10.2465ZM16.8 16.1579C16.8 15.9402 16.9342 15.7638 17.1 15.7638H21.3C21.4658 15.7638 21.6 15.9402 21.6 16.1579V16.9461C21.6 17.1638 21.4658 17.3402 21.3 17.3402H17.1C16.9342 17.3402 16.8 17.1638 16.8 16.9461V16.1579ZM2.4 11.4288C2.4 11.211 2.53425 11.0347 2.7 11.0347H14.1C14.2658 11.0347 14.4 11.211 14.4 11.4288V12.217C14.4 12.4347 14.2658 12.6111 14.1 12.6111H2.7C2.53425 12.6111 2.4 12.4347 2.4 12.217V11.4288ZM2.4 16.1579C2.4 15.9402 2.53425 15.7638 2.7 15.7638H9.3C9.46575 15.7638 9.6 15.9402 9.6 16.1579V16.9461C9.6 17.1638 9.46575 17.3402 9.3 17.3402H2.7C2.53425 17.3402 2.4 17.1638 2.4 16.9461V16.1579ZM23.4 0H0.6C0.2685 0 0 0.352715 0 0.788191V3.15276H24V0.788191C24 0.352715 23.7315 0 23.4 0Z" fill="white"/>
</svg>
