<svg width="24" height="24" viewBox="0 0 24 24" fill="none" xmlns="http://www.w3.org/2000/svg">
<g clip-path="url(#clip0_1_756)">
<path d="M17 2C17.7652 1.99996 18.5015 2.29233 19.0583 2.81728C19.615 3.34224 19.9501 4.06011 19.995 4.824L20 5V17C20.2246 16.9995 20.4428 17.0747 20.6195 17.2134C20.7962 17.3521 20.921 17.5462 20.9739 17.7645C21.0268 17.9828 21.0047 18.2125 20.9111 18.4167C20.8175 18.6209 20.6579 18.7876 20.458 18.89L20.351 18.936L12.351 21.936C12.1709 22.0036 11.975 22.0179 11.787 21.977L11.649 21.937L3.64901 18.937C3.43889 18.8587 3.26117 18.7121 3.14439 18.5207C3.02761 18.3293 2.97854 18.1042 3.00507 17.8816C3.03161 17.6589 3.1322 17.4516 3.29069 17.293C3.44919 17.1344 3.65638 17.0337 3.87901 17.007L4.00001 17V5C3.99997 4.23479 4.29234 3.49849 4.8173 2.94174C5.34226 2.38499 6.06012 2.04989 6.82401 2.005L7.00001 2H17ZM12 5C11.7551 5.00003 11.5187 5.08996 11.3356 5.25272C11.1526 5.41547 11.0357 5.63975 11.007 5.883L11 6V7H10C9.35013 6.99842 8.72517 7.24997 8.2576 7.70134C7.79003 8.15271 7.5166 8.76842 7.49528 9.41795C7.47395 10.0675 7.7064 10.6998 8.14335 11.1809C8.58031 11.6619 9.18742 11.9539 9.83601 11.995L10 12H11V13H9.00001C8.74513 13.0003 8.49998 13.0979 8.31465 13.2728C8.12931 13.4478 8.01778 13.687 8.00284 13.9414C7.9879 14.1958 8.07069 14.4464 8.23428 14.6418C8.39787 14.8373 8.62992 14.9629 8.88301 14.993L9.00001 15H11V16C11.0003 16.2549 11.0979 16.5 11.2729 16.6854C11.4478 16.8707 11.687 16.9822 11.9414 16.9972C12.1959 17.0121 12.4464 16.9293 12.6418 16.7657C12.8373 16.6021 12.9629 16.3701 12.993 16.117L13 16V15H14C14.6499 15.0016 15.2749 14.75 15.7424 14.2987C16.21 13.8473 16.4834 13.2316 16.5048 12.582C16.5261 11.9325 16.2936 11.3002 15.8567 10.8191C15.4197 10.3381 14.8126 10.0461 14.164 10.005L14 10H13V9H15C15.2549 8.99972 15.5 8.90212 15.6854 8.72715C15.8707 8.55218 15.9822 8.31305 15.9972 8.05861C16.0121 7.80416 15.9293 7.55362 15.7657 7.35817C15.6022 7.16271 15.3701 7.0371 15.117 7.007L15 7H13V6C13 5.73478 12.8947 5.48043 12.7071 5.29289C12.5196 5.10536 12.2652 5 12 5ZM14 12C14.1326 12 14.2598 12.0527 14.3536 12.1464C14.4473 12.2402 14.5 12.3674 14.5 12.5C14.5 12.6326 14.4473 12.7598 14.3536 12.8536C14.2598 12.9473 14.1326 13 14 13H13V12H14ZM11 9V10H10C9.86741 10 9.74023 9.94732 9.64646 9.85355C9.55269 9.75979 9.50001 9.63261 9.50001 9.5C9.50001 9.36739 9.55269 9.24021 9.64646 9.14645C9.74023 9.05268 9.86741 9 10 9H11Z" fill="white"/>
</g>
<defs>
<clipPath id="clip0_1_756">
<rect width="24" height="24" fill="white"/>
</clipPath>
</defs>
</svg>
