<svg width="24" height="24" viewBox="0 0 24 24" fill="none" xmlns="http://www.w3.org/2000/svg">
<path fill-rule="evenodd" clip-rule="evenodd" d="M11.0595 0.3315C11.316 0.1245 11.6445 0 12 0C12.3555 0 12.684 0.1245 12.9405 0.3315L22.6305 7.812C22.986 8.0865 23.2155 8.517 23.2155 9C23.2155 9.828 22.5435 10.5 21.7155 10.5H21V19.5C21.828 19.5 22.5 20.172 22.5 21C22.5 21.828 21.828 22.5 21 22.5H2.99998C2.17198 22.5 1.49998 21.828 1.49998 21C1.49998 20.172 2.17198 19.5 2.99998 19.5V10.5H2.28448C1.45648 10.5 0.784485 9.828 0.784485 9C0.784485 8.517 1.01398 8.0865 1.36948 7.812L11.0595 0.3315ZM7.49998 11.25C7.49998 10.836 7.16398 10.5 6.74998 10.5C6.33598 10.5 5.99998 10.836 5.99998 11.25V18.75C5.99998 19.164 6.33598 19.5 6.74998 19.5C7.16398 19.5 7.49998 19.164 7.49998 18.75V11.25ZM13.5 12C13.5 11.172 12.828 10.5 12 10.5C11.172 10.5 10.5 11.172 10.5 12V18C10.5 18.828 11.172 19.5 12 19.5C12.828 19.5 13.5 18.828 13.5 18V12ZM18 11.25C18 10.836 17.664 10.5 17.25 10.5C16.836 10.5 16.5 10.836 16.5 11.25V18.75C16.5 19.164 16.836 19.5 17.25 19.5C17.664 19.5 18 19.164 18 18.75V11.25ZM12 4.5C12.828 4.5 13.5 5.172 13.5 6C13.5 6.828 12.828 7.5 12 7.5C11.172 7.5 10.5 6.828 10.5 6C10.5 5.172 11.172 4.5 12 4.5Z" fill="white"/>
</svg>
